<svg xmlns="http://www.w3.org/2000/svg" viewBox="0 0 1600 900" role="img" aria-label="Stylized Ireland cliffs">
  <defs>
    <linearGradient id="sky" x1="0" y1="0" x2="0" y2="1"><stop offset="0" stop-color="#071c2b"/><stop offset=".6" stop-color="#517f91"/><stop offset="1" stop-color="#a7c7bf"/></linearGradient>
    <linearGradient id="grass" x1="0" y1="0" x2="1" y2="1"><stop offset="0" stop-color="#315d3c"/><stop offset=".55" stop-color="#163e2c"/><stop offset="1" stop-color="#0b241d"/></linearGradient>
  </defs>
  <rect width="1600" height="900" fill="url(#sky)"/>
  <path d="M0 630 C260 610 460 570 700 610 C930 650 1130 620 1600 560 L1600 900 L0 900 Z" fill="#103149"/>
  <path d="M0 460 C220 420 390 430 545 470 C660 500 720 535 810 565 L720 900 L0 900 Z" fill="url(#grass)"/>
  <path d="M690 560 L820 585 L760 900 L640 900 Z" fill="#2b2e2d"/>
  <path d="M820 585 C1040 560 1290 590 1600 535 L1600 900 L760 900 Z" fill="#0d2f46"/>
  <path d="M680 555 C730 565 770 575 820 585" fill="none" stroke="#d4dfd5" stroke-width="7" opacity=".55"/>
  <g fill="#d9e7df" opacity=".22"><ellipse cx="350" cy="210" rx="230" ry="55"/><ellipse cx="1030" cy="180" rx="290" ry="65"/></g>
  <rect width="1600" height="900" fill="#06131f" opacity=".17"/>
</svg>